#!OML:ASF H:\Terrain\Patient Classification 1\Takeo\Monday\TakeoMonday.ASF
:FULLY-SPECIFIED
:DEGREES
646
root 3.84846 16.8775 1.2275 -175.223 66.6091 -178.774
lowerback 17.2788 -2.06006 1.9851
upperback 8.31185 -1.73521 -0.916261
thorax -0.901591 -0.50495 -1.78314
lowerneck -3.15944 -16.8351 -10.7015
upperneck -5.26278 -22.1459 17.4934
head 2.13132 -10.9573 5.67706
rclavicle -8.90555e-014 4.27387e-014
rhumerus 4.73112 32.155 -90.4221
rradius 53.4746
rwrist -8.20602
rhand -44.9939 39.8477
rfingers 7.12502
rthumb -17.7778 10.6404
lclavicle -8.90555e-014 4.27387e-014
lhumerus 1.8727 -24.9325 84.8814
lradius 79.3239
lwrist 29.2989
lhand -28.2079 29.3227
lfingers 7.12502
lthumb -1.58667 59.2965
rfemur -24.5279 -13.7155 11.888
rtibia 46.5161
rfoot -20.4985 -14.4482
rtoes -2.7361
lfemur -29.4597 14.082 -16.6686
ltibia 46.9136
lfoot -16.1558 3.46031
ltoes -7.82983
647
root 3.81516 16.8319 1.20435 -175.039 66.1599 -178.984
lowerback 17.2493 -1.98856 2.22281
upperback 8.53339 -1.57746 -0.889339
thorax -0.648339 -0.403576 -1.91959
lowerneck -2.92987 -17.105 -10.8037
upperneck -6.06995 -22.4477 18.1998
head 2.0021 -11.1358 5.89956
rclavicle -5.66536e-015 -3.97569e-016
rhumerus 5.96195 32.7851 -89.8945
rradius 53.5998
rwrist -8.14025
rhand -45.0802 39.764
rfingers 7.12502
rthumb -17.8608 10.5642
lclavicle -5.66536e-015 -3.97569e-016
lhumerus 2.68695 -24.7032 84.5341
lradius 79.6934
lwrist 28.8902
lhand -28.265 29.5583
lfingers 7.12502
lthumb -1.64181 59.5318
rfemur -25.3632 -14.2587 11.7459
rtibia 47.4243
rfoot -20.6814 -14.3948
rtoes -4.92663
lfemur -30.4838 14.121 -17.122
ltibia 47.6113
lfoot -16.1883 3.34487
ltoes -8.45256
648
root 3.78078 16.7762 1.18886 -175.379 65.651 -179.796
lowerback 17.3248 -1.98602 2.00734
upperback 8.67952 -1.58094 -0.881443
thorax -0.526216 -0.399226 -1.78891
lowerneck -2.96245 -17.4363 -10.0884
upperneck -6.57371 -22.8433 17.9658
head 1.79823 -11.3573 5.72947
rclavicle 7.97127e-014 -4.47266e-014
rhumerus 6.84411 33.5511 -89.6598
rradius 53.8599
rwrist -7.87721
rhand -44.9597 40.2937
rfingers 7.12502
rthumb -17.7449 11.0833
lclavicle 7.97127e-014 -4.47266e-014
lhumerus 3.35003 -24.1941 84.0004
lradius 80.304
lwrist 29.1465
lhand -28.8635 29.9886
lfingers 7.12502
lthumb -2.21987 59.9568
rfemur -26.2156 -14.7916 11.325
rtibia 48.3936
rfoot -21.1205 -14.0602
rtoes -4.12315
lfemur -31.5893 14.195 -17.8437
ltibia 48.377
lfoot -16.2091 3.10444
ltoes -9.52056
649
root 3.7457 16.7248 1.1797 -176.04 65.0809 -180.952
lowerback 17.6567 -2.01637 1.64521
upperback 8.63221 -1.66057 -0.906083
thorax -0.742725 -0.447609 -1.5905
lowerneck -2.7926 -17.6416 -9.79165
upperneck -6.92329 -23.0988 17.9503
head 1.66492 -11.5093 5.69544
rclavicle 8.24956e-015 -4.27387e-014
rhumerus 7.31151 34.3903 -89.8215
rradius 54.1409
rwrist -7.3998
rhand -44.4957 40.0952
rfingers 7.12502
rthumb -17.2983 10.845
lclavicle 8.24956e-015 -4.27387e-014
lhumerus 3.52911 -23.4928 83.6598
lradius 80.9462
lwrist 29.1974
lhand -29.7552 29.7342
lfingers 7.12502
lthumb -3.08106 59.6916
rfemur -27.0683 -15.3619 10.7289
rtibia 49.4047
rfoot -21.5731 -13.7704
rtoes -3.21713
lfemur -32.7132 14.3121 -18.705
ltibia 49.1757
lfoot -16.2641 2.48811
ltoes -9.8626
650
root 3.70952 16.6778 1.17514 -176.036 64.6681 -181.258
lowerback 18.1482 -2.02465 1.61419
upperback 8.6669 -1.6424 -0.772947
thorax -0.953596 -0.434705 -1.42848
lowerneck -2.75012 -17.821 -10.3245
upperneck -7.24404 -23.3118 18.4829
head 1.7253 -11.6165 5.88839
rclavicle -2.68359e-014 2.43511e-014
rhumerus 8.33524 35.9978 -89.1572
rradius 54.3697
rwrist -8.04561
rhand -44.7295 40.6058
rfingers 7.12502
rthumb -17.5233 11.3755
lclavicle -2.68359e-014 2.43511e-014
lhumerus 3.67956 -22.5997 83.4274
lradius 81.5551
lwrist 28.8435
lhand -29.9046 29.2272
lfingers 7.12502
lthumb -3.22531 59.1825
rfemur -27.8627 -15.8077 10.5718
rtibia 50.3822
rfoot -21.9004 -13.7018
rtoes -4.00596
lfemur -33.6944 14.7206 -19.1435
ltibia 49.9619
lfoot -16.3217 1.75814
ltoes -9.25101
651
root 3.67413 16.6237 1.16399 -175.695 64.2782 -181.106
lowerback 18.5889 -1.94642 1.87506
upperback 8.80038 -1.4531 -0.642292
thorax -1.03313 -0.321997 -1.46856
lowerneck -2.82833 -18.1521 -9.92233
upperneck -7.69531 -23.7075 18.4242
head 1.59999 -11.8298 5.79697
rclavicle -2.07481e-014 3.98066e-014
rhumerus 9.77409 37.3974 -88.0149
rradius 54.3949
rwrist -8.71947
rhand -45.5036 41.6766
rfingers 7.12502
rthumb -18.2682 12.5145
lclavicle -2.07481e-014 3.98066e-014
lhumerus 4.20399 -22.1601 83.0613
lradius 82.0816
lwrist 28.6553
lhand -29.5774 28.9192
lfingers 7.12502
lthumb -2.90931 58.8791
rfemur -28.5473 -16.2695 10.6296
rtibia 51.2976
rfoot -22.1423 -13.7169
rtoes -5.04674
lfemur -34.6085 14.9082 -19.3402
ltibia 50.809
lfoot -16.4554 1.26999
ltoes -8.6834
